<svg width="250" height="40" viewBox="0 0 250 40" fill="none" xmlns="http://www.w3.org/2000/svg">
<path fill-rule="evenodd" clip-rule="evenodd" d="M8.77393 39.2878C3.92822 39.2878 0 35.3595 0 30.5138V21.5693C1.93829 21.5693 3.50958 23.1406 3.50958 25.0789V30.5138C3.50958 33.4213 5.86651 35.7782 8.77393 35.7782H14.2089C16.1472 35.7782 17.7185 37.3495 17.7185 39.2878H8.77393ZM39.2878 21.5693C37.3495 21.5693 35.7782 23.1406 35.7782 25.0789V30.5138C35.7782 33.4213 33.4213 35.7782 30.5138 35.7782H25.0789C23.1406 35.7782 21.5693 37.3495 21.5693 39.2878H30.5138C35.3595 39.2878 39.2878 35.3596 39.2878 30.5138V21.5693ZM21.5693 0C21.5693 1.93829 23.1406 3.50958 25.0789 3.50958H30.5138C33.4213 3.50958 35.7782 5.86651 35.7782 8.77394V14.2089C35.7782 16.1472 37.3495 17.7185 39.2878 17.7185V8.77394C39.2878 3.92823 35.3596 0 30.5138 0H21.5693ZM0 17.7185C1.93829 17.7185 3.50958 16.1472 3.50958 14.2089V8.77393C3.50958 5.86651 5.86651 3.50958 8.77394 3.50958H14.2089C16.1472 3.50958 17.7185 1.93829 17.7185 0H8.77394C3.92823 0 0 3.92822 0 8.77393V17.7185Z" fill="#2693FF"/>
<path d="M55.6928 29.2467L65.7688 6.97846H69.0854L79.1614 29.2467H75.0552L72.8441 24.0982H61.9785L59.799 29.2467H55.6928ZM67.3797 11.3689L63.3683 20.8764H71.4543L67.4429 11.3689H67.3797Z" fill="#1F2A37"/>
<path d="M90.1262 29.5626C88.9891 29.5626 87.9678 29.3099 87.0624 28.8045C86.1779 28.2991 85.5146 27.6148 85.0724 26.7514V29.2467H81.2189V6.97846H85.1672V16.0753C85.6305 15.2962 86.2938 14.675 87.1571 14.2117C88.0415 13.7274 89.0312 13.4852 90.1262 13.4852C91.495 13.4852 92.6847 13.8116 93.6955 14.4644C94.7062 15.1172 95.4959 16.0437 96.0644 17.244C96.633 18.4232 96.9173 19.8446 96.9173 21.5081C96.9173 23.1506 96.633 24.5825 96.0644 25.8038C95.4959 27.0041 94.6957 27.9306 93.6639 28.5834C92.6531 29.2362 91.4739 29.5626 90.1262 29.5626ZM89.0207 26.5619C90.1999 26.5619 91.1475 26.1408 91.8635 25.2985C92.5794 24.4351 92.9374 23.1716 92.9374 21.5081C92.9374 19.8235 92.5794 18.5706 91.8635 17.7494C91.1475 16.9071 90.1999 16.4859 89.0207 16.4859C87.8415 16.4859 86.8939 16.9071 86.1779 17.7494C85.462 18.5706 85.104 19.8235 85.104 21.5081C85.104 23.1716 85.462 24.4351 86.1779 25.2985C86.8939 26.1408 87.8415 26.5619 89.0207 26.5619Z" fill="#1F2A37"/>
<path d="M105.812 29.5626C104.507 29.5626 103.285 29.4047 102.148 29.0888C101.011 28.7729 100.064 28.3202 99.3055 27.7306L100.316 25.1405C101.095 25.667 101.969 26.0776 102.938 26.3724C103.907 26.6461 104.875 26.783 105.844 26.783C106.855 26.783 107.602 26.6145 108.086 26.2776C108.592 25.9197 108.844 25.4564 108.844 24.8878C108.844 24.0034 108.192 23.4349 106.886 23.1822L103.728 22.582C101.053 22.0767 99.7161 20.6869 99.7161 18.4127C99.7161 17.4019 99.9898 16.528 100.537 15.791C101.106 15.054 101.885 14.4854 102.875 14.0854C103.864 13.6853 105.002 13.4852 106.286 13.4852C107.381 13.4852 108.434 13.6431 109.445 13.959C110.455 14.2538 111.319 14.7065 112.035 15.3172L110.961 17.9073C110.35 17.4019 109.613 17.0018 108.75 16.707C107.907 16.4122 107.097 16.2648 106.318 16.2648C105.286 16.2648 104.517 16.4438 104.012 16.8018C103.527 17.1597 103.285 17.6335 103.285 18.2231C103.285 19.1497 103.885 19.7182 105.086 19.9288L108.244 20.5289C109.613 20.7816 110.645 21.2449 111.34 21.9187C112.056 22.5926 112.414 23.498 112.414 24.6351C112.414 26.1723 111.814 27.3831 110.613 28.2676C109.413 29.1309 107.813 29.5626 105.812 29.5626Z" fill="#1F2A37"/>
<path d="M123.194 29.5626C121.446 29.5626 119.94 29.2362 118.677 28.5834C117.413 27.9306 116.434 27.0041 115.739 25.8038C115.065 24.6036 114.728 23.1822 114.728 21.5397C114.728 19.9393 115.055 18.539 115.708 17.3387C116.381 16.1385 117.297 15.2014 118.456 14.5276C119.635 13.8327 120.972 13.4852 122.467 13.4852C124.657 13.4852 126.384 14.1801 127.647 15.5699C128.932 16.9597 129.574 18.8549 129.574 21.2554V22.4241H118.519C118.814 25.1826 120.393 26.5619 123.257 26.5619C124.12 26.5619 124.983 26.4356 125.847 26.1829C126.71 25.9091 127.5 25.488 128.216 24.9194L129.321 27.5727C128.584 28.1833 127.658 28.6677 126.542 29.0256C125.426 29.3836 124.31 29.5626 123.194 29.5626ZM122.625 16.17C121.467 16.17 120.53 16.528 119.814 17.244C119.098 17.9599 118.666 18.9286 118.519 20.1499H126.289C126.205 18.8654 125.847 17.8862 125.215 17.2124C124.604 16.5175 123.741 16.17 122.625 16.17Z" fill="#1F2A37"/>
<path d="M132.701 29.2467V13.8011H136.554V16.2016C137.081 15.3172 137.786 14.6434 138.67 14.1801C139.576 13.7168 140.587 13.4852 141.703 13.4852C145.346 13.4852 147.167 15.6015 147.167 19.834V29.2467H143.219V20.0236C143.219 18.8233 142.987 17.9494 142.524 17.4019C142.082 16.8544 141.387 16.5807 140.439 16.5807C139.281 16.5807 138.355 16.9492 137.66 17.6862C136.986 18.4021 136.649 19.3602 136.649 20.5605V29.2467H132.701Z" fill="#1F2A37"/>
<path d="M158.316 29.5626C156.694 29.5626 155.284 29.2362 154.083 28.5834C152.883 27.9096 151.957 26.962 151.304 25.7407C150.651 24.5193 150.325 23.0874 150.325 21.4449C150.325 19.8025 150.651 18.3916 151.304 17.2124C151.957 16.0121 152.883 15.0961 154.083 14.4644C155.284 13.8116 156.694 13.4852 158.316 13.4852C159.306 13.4852 160.285 13.6431 161.253 13.959C162.222 14.2749 163.022 14.7171 163.654 15.2856L162.485 18.0336C161.938 17.5493 161.317 17.1808 160.622 16.9281C159.948 16.6754 159.295 16.5491 158.663 16.5491C157.295 16.5491 156.231 16.9808 155.473 17.8441C154.736 18.6864 154.368 19.8972 154.368 21.4765C154.368 23.0348 154.736 24.2666 155.473 25.1721C156.231 26.0565 157.295 26.4987 158.663 26.4987C159.274 26.4987 159.927 26.3724 160.622 26.1197C161.317 25.867 161.938 25.488 162.485 24.9826L163.654 27.7622C163.022 28.3097 162.212 28.7519 161.222 29.0888C160.253 29.4047 159.285 29.5626 158.316 29.5626Z" fill="#1F2A37"/>
<path d="M173.38 29.5626C171.632 29.5626 170.126 29.2362 168.863 28.5834C167.6 27.9306 166.62 27.0041 165.925 25.8038C165.252 24.6036 164.915 23.1822 164.915 21.5397C164.915 19.9393 165.241 18.539 165.894 17.3387C166.568 16.1385 167.484 15.2014 168.642 14.5276C169.821 13.8327 171.158 13.4852 172.653 13.4852C174.843 13.4852 176.57 14.1801 177.833 15.5699C179.118 16.9597 179.76 18.8549 179.76 21.2554V22.4241H168.705C169 25.1826 170.579 26.5619 173.443 26.5619C174.306 26.5619 175.17 26.4356 176.033 26.1829C176.896 25.9091 177.686 25.488 178.402 24.9194L179.508 27.5727C178.771 28.1833 177.844 28.6677 176.728 29.0256C175.612 29.3836 174.496 29.5626 173.38 29.5626ZM172.811 16.17C171.653 16.17 170.716 16.528 170 17.244C169.284 17.9599 168.852 18.9286 168.705 20.1499H176.475C176.391 18.8654 176.033 17.8862 175.401 17.2124C174.791 16.5175 173.927 16.17 172.811 16.17Z" fill="#1F2A37"/>
<path d="M190.941 29.5626C189.194 29.5626 187.572 29.3415 186.077 28.8993C184.582 28.436 183.319 27.8148 182.287 27.0357L183.519 23.8455C184.551 24.5825 185.677 25.1511 186.898 25.5511C188.141 25.9512 189.488 26.1513 190.941 26.1513C192.605 26.1513 193.816 25.8775 194.574 25.33C195.332 24.7615 195.711 24.035 195.711 23.1506C195.711 22.4136 195.437 21.8345 194.89 21.4134C194.363 20.9922 193.447 20.6448 192.142 20.371L188.667 19.6445C184.708 18.8022 182.729 16.7702 182.729 13.5484C182.729 12.1586 183.098 10.9478 183.835 9.91598C184.572 8.88416 185.593 8.08398 186.898 7.51543C188.204 6.94687 189.71 6.6626 191.415 6.6626C192.931 6.6626 194.353 6.89423 195.679 7.35749C197.006 7.7997 198.112 8.43143 198.996 9.25267L197.764 12.2849C196.016 10.8109 193.89 10.0739 191.384 10.0739C189.931 10.0739 188.794 10.3792 187.972 10.9899C187.151 11.6006 186.74 12.4008 186.74 13.3905C186.74 14.1485 186.993 14.7592 187.499 15.2225C188.004 15.6647 188.867 16.0121 190.089 16.2648L193.532 16.9913C195.616 17.4335 197.164 18.1284 198.175 19.076C199.207 20.0236 199.722 21.287 199.722 22.8663C199.722 24.1929 199.364 25.3616 198.648 26.3724C197.933 27.3831 196.911 28.1728 195.585 28.7414C194.279 29.2888 192.731 29.5626 190.941 29.5626Z" fill="#1F2A37"/>
<path d="M202.813 34.9322V13.8011H206.667V16.2648C207.109 15.4225 207.772 14.7487 208.657 14.2433C209.562 13.7379 210.584 13.4852 211.721 13.4852C213.068 13.4852 214.248 13.8116 215.258 14.4644C216.29 15.1172 217.09 16.0437 217.659 17.244C218.227 18.4232 218.512 19.8446 218.512 21.5081C218.512 23.1506 218.227 24.5825 217.659 25.8038C217.09 27.0041 216.301 27.9306 215.29 28.5834C214.279 29.2362 213.089 29.5626 211.721 29.5626C210.626 29.5626 209.636 29.331 208.752 28.8677C207.888 28.3834 207.225 27.7411 206.762 26.9409V34.9322H202.813ZM210.615 26.5619C211.794 26.5619 212.742 26.1408 213.458 25.2985C214.174 24.4351 214.532 23.1716 214.532 21.5081C214.532 19.8235 214.174 18.5706 213.458 17.7494C212.742 16.9071 211.794 16.4859 210.615 16.4859C209.436 16.4859 208.488 16.9071 207.772 17.7494C207.057 18.5706 206.699 19.8235 206.699 21.5081C206.699 23.1716 207.057 24.4351 207.772 25.2985C208.488 26.1408 209.436 26.5619 210.615 26.5619Z" fill="#1F2A37"/>
<path d="M228.797 29.5626C227.196 29.5626 225.806 29.2362 224.627 28.5834C223.448 27.9306 222.532 27.0041 221.879 25.8038C221.226 24.5825 220.9 23.1506 220.9 21.5081C220.9 19.8656 221.226 18.4443 221.879 17.244C222.532 16.0437 223.448 15.1172 224.627 14.4644C225.806 13.8116 227.196 13.4852 228.797 13.4852C230.397 13.4852 231.787 13.8116 232.966 14.4644C234.145 15.1172 235.061 16.0437 235.714 17.244C236.367 18.4443 236.693 19.8656 236.693 21.5081C236.693 23.1506 236.367 24.5825 235.714 25.8038C235.061 27.0041 234.145 27.9306 232.966 28.5834C231.787 29.2362 230.397 29.5626 228.797 29.5626ZM228.797 26.5619C229.976 26.5619 230.923 26.1408 231.639 25.2985C232.355 24.4351 232.713 23.1716 232.713 21.5081C232.713 19.8235 232.355 18.5706 231.639 17.7494C230.923 16.9071 229.976 16.4859 228.797 16.4859C227.617 16.4859 226.67 16.9071 225.954 17.7494C225.238 18.5706 224.88 19.8235 224.88 21.5081C224.88 23.1716 225.238 24.4351 225.954 25.2985C226.67 26.1408 227.617 26.5619 228.797 26.5619Z" fill="#1F2A37"/>
<path d="M246.873 29.5626C242.788 29.5626 240.745 27.5411 240.745 23.498V16.7702H237.776V13.8011H240.745V9.18949H244.694V13.8011H249.368V16.7702H244.694V23.2769C244.694 24.2877 244.915 25.0458 245.357 25.5511C245.799 26.0565 246.515 26.3092 247.505 26.3092C247.799 26.3092 248.105 26.2776 248.421 26.2145C248.737 26.1302 249.063 26.046 249.4 25.9618L250 28.8677C249.621 29.0783 249.137 29.2467 248.547 29.3731C247.978 29.4994 247.42 29.5626 246.873 29.5626Z" fill="#1F2A37"/>
</svg>
